<svg width="120" height="24" viewBox="0 0 120 24" fill="none" xmlns="http://www.w3.org/2000/svg">
<path d="M32.3192 22H8.73312C7.79376 22 6.90545 21.8426 6.0682 21.5278C5.25136 21.1944 4.52642 20.75 3.89338 20.1944C3.28075 19.6204 2.79065 18.963 2.42308 18.2222C2.07592 17.463 1.90234 16.6574 1.90234 15.8056V8.19444C1.90234 7.34259 2.07592 6.5463 2.42308 5.80556C2.79065 5.0463 3.28075 4.38889 3.89338 3.83333C4.52642 3.25926 5.25136 2.81481 6.0682 2.5C6.90545 2.16667 7.79376 2 8.73312 2H32.3192C33.2586 2 34.1367 2.16667 34.9535 2.5C35.7907 2.81481 36.5157 3.25926 37.1283 3.83333C37.7613 4.38889 38.2514 5.0463 38.5986 5.80556C38.9662 6.5463 39.15 7.34259 39.15 8.19444V15.8056C39.15 16.6574 38.9662 17.463 38.5986 18.2222C38.2514 18.963 37.7613 19.6204 37.1283 20.1944C36.5157 20.75 35.7907 21.1944 34.9535 21.5278C34.1367 21.8426 33.2586 22 32.3192 22ZM33.3607 13.9167V10.0833C33.3607 9.69444 33.279 9.33333 33.1156 9C32.9727 8.64815 32.7582 8.34259 32.4724 8.08333C32.2069 7.82407 31.8801 7.62037 31.4921 7.47222C31.1246 7.32407 30.7162 7.25 30.2669 7.25H10.8467C9.94816 7.25 9.19259 7.51852 8.57996 8.05556C7.98776 8.59259 7.69165 9.26852 7.69165 10.0833V13.9167C7.69165 14.3056 7.76313 14.6759 7.90607 15.0278C8.06944 15.3611 8.28386 15.6574 8.54933 15.9167C8.83522 16.1759 9.17217 16.3796 9.56016 16.5278C9.94816 16.6759 10.3668 16.75 10.816 16.75H30.2056C31.1246 16.75 31.8801 16.4722 32.4724 15.9167C33.0646 15.3611 33.3607 14.6944 33.3607 13.9167Z" fill="#F5F5F5"/>
<path d="M78.7146 22H71.6387L67.2585 16.2222H47.7157V22H41.9264V2H72.2207C73.1805 2 74.0688 2.15741 74.8857 2.47222C75.7229 2.78704 76.4478 3.2037 77.0605 3.72222C77.6935 4.24074 78.1836 4.84259 78.5308 5.52778C78.8983 6.19444 79.0821 6.87963 79.0821 7.58333V10.5C79.0821 11.0926 78.9392 11.6944 78.6533 12.3056C78.3878 12.9167 78.0202 13.4815 77.5506 14C77.1013 14.5185 76.5704 14.963 75.9577 15.3333C75.3655 15.6852 74.7529 15.9167 74.1199 16.0278L78.7146 22ZM73.2928 9.25V8.86111C73.2928 8.43519 73.0886 8.06482 72.6802 7.75C72.2718 7.41667 71.7102 7.25 70.9955 7.25H47.7157V10.9722H70.9955C71.7715 10.9722 72.3433 10.7963 72.7108 10.4444C73.0988 10.0926 73.2928 9.69444 73.2928 9.25Z" fill="#F5F5F5"/>
<path d="M81.8607 2H118.098V7.25H87.65V9.38889H117.362V14.6111H87.65V16.75H118.098V22H81.8607V2Z" fill="#F5F5F5"/>
</svg>
